HIERARCHY
ROOT root
{
	OFFSET 0.000000 0.000000 0.000000
	CHANNELS 6 Xposition Yposition Zposition Zrotation Yrotation Xrotation
	JOINT lhip
	{
		OFFSET 0.058581 -0.082280 -0.017664
		CHANNELS 3 Zrotation Yrotation Xrotation
		JOINT lknee
		{
			OFFSET 0.043451 -0.386469 0.008037
			CHANNELS 3 Zrotation Yrotation Xrotation
			JOINT lankle
			{
				OFFSET -0.014790 -0.426874 -0.037428
				CHANNELS 3 Zrotation Yrotation Xrotation
				JOINT ltoe
				{
					OFFSET 0.041054 -0.060286 0.122042
					CHANNELS 3 Zrotation Yrotation Xrotation
					End Site
					{
						OFFSET 0.000000 0.000000 0.000000
					}
				}
			}
		}
	}
	JOINT rhip
	{
		OFFSET -0.060310 -0.090513 -0.013543
		CHANNELS 3 Zrotation Yrotation Xrotation
		JOINT rknee
		{
			OFFSET -0.043257 -0.383688 -0.004843
			CHANNELS 3 Zrotation Yrotation Xrotation
			JOINT rankle
			{
				OFFSET 0.019056 -0.420046 -0.034562
				CHANNELS 3 Zrotation Yrotation Xrotation
				JOINT rtoe
				{
					OFFSET -0.034840 -0.062106 0.130323
					CHANNELS 3 Zrotation Yrotation Xrotation
					End Site
					{
						OFFSET 0.000000 0.000000 0.000000
					}
				}
			}
		}
	}
	JOINT lowerback
	{
		OFFSET 0.004439 0.124404 -0.038385
		CHANNELS 3 Zrotation Yrotation Xrotation
		JOINT upperback
		{
			OFFSET 0.004488 0.137956 0.026820
			CHANNELS 3 Zrotation Yrotation Xrotation
			JOINT chest
			{
				OFFSET -0.002265 0.056032 0.002855
				CHANNELS 3 Zrotation Yrotation Xrotation
				JOINT lowerneck
				{
					OFFSET -0.013390 0.211636 -0.033468
					CHANNELS 3 Zrotation Yrotation Xrotation
					JOINT upperneck
					{
						OFFSET 0.010113 0.088937 0.050410
						CHANNELS 3 Zrotation Yrotation Xrotation
						End Site
						{
							OFFSET 0.000000 0.000000 0.000000
						}
					}
				}
				JOINT lclavicle
				{
					OFFSET 0.071702 0.114000 -0.018898
					CHANNELS 3 Zrotation Yrotation Xrotation
					JOINT lshoulder
					{
						OFFSET 0.122921 0.045205 -0.019046
						CHANNELS 3 Zrotation Yrotation Xrotation
						JOINT lelbow
						{
							OFFSET 0.255332 -0.015649 -0.022946
							CHANNELS 3 Zrotation Yrotation Xrotation
							JOINT lwrist
							{
								OFFSET 0.265709 0.012698 -0.007375
								CHANNELS 3 Zrotation Yrotation Xrotation
								End Site
								{
									OFFSET 0.000000 0.000000 0.000000
								}
							}
						}
					}
				}
				JOINT rclavicle
				{
					OFFSET -0.082954 0.112472 -0.023707
					CHANNELS 3 Zrotation Yrotation Xrotation
					JOINT rshoulder
					{
						OFFSET -0.113228 0.046853 -0.008472
						CHANNELS 3 Zrotation Yrotation Xrotation
						JOINT relbow
						{
							OFFSET -0.260127 -0.014369 -0.031269
							CHANNELS 3 Zrotation Yrotation Xrotation
							JOINT rwrist
							{
								OFFSET -0.269108 0.006794 -0.006027
								CHANNELS 3 Zrotation Yrotation Xrotation
								End Site
								{
									OFFSET 0.000000 0.000000 0.000000
								}
							}
						}
					}
				}
			}
		}
	}
}
MOTION
Frames: 5
Frame Time: 0.033333
-0.045602 0.336580 0.982998 91.495239 0.188458 87.124559 1.227432 -1.473250 -12.052772 -4.765741 -7.904855 16.710960 3.566887 19.181495 -9.860192 0.000000 -0.000000 0.000000 -6.847253 -4.872209 5.221974 4.177719 9.865343 38.664180 13.416782 -8.810156 0.932793 0.000000 -0.000000 0.000000 -1.976492 4.750382 11.330740 0.752026 -3.773225 -4.139717 0.867633 0.430767 4.536214 -1.347351 -4.594455 13.183922 3.104973 -3.086532 1.147878 -3.658411 5.409142 -7.963193 -12.680071 -0.462561 -12.109561 16.785799 -25.071681 -10.373132 7.629246 1.535738 17.902758 2.114644 -6.622924 -10.621975 18.437242 -2.523984 -5.736095 -13.019269 18.436448 -10.350321 -21.904097 -1.331585 17.158663 
-0.028512 0.342860 0.984861 91.468068 0.697612 87.125051 1.219335 -1.280030 -10.878274 -4.711069 -8.326577 16.689948 4.374612 19.594889 -10.611685 0.000000 -0.000000 0.000000 -6.648341 -4.517608 2.669710 4.802703 9.157272 43.148687 13.348027 -9.986942 6.025711 0.000000 -0.000000 0.000000 -2.340863 4.093675 11.513208 0.512982 -3.391186 -4.345339 0.707093 0.368444 4.572727 -1.160174 -4.949320 12.910286 3.398669 -2.381541 1.357464 -4.044422 5.427178 -8.031342 -12.856091 -0.712642 -12.111979 16.875162 -24.892898 -10.830052 7.588668 1.526639 18.237060 1.917643 -6.648315 -10.709384 18.115613 -2.078936 -5.427170 -13.101094 18.477013 -10.728001 -21.791782 -1.189510 17.521181 
-0.012838 0.348297 0.986180 91.611366 1.173341 86.894285 1.200541 -1.275507 -9.401054 -4.571994 -8.867952 16.413141 5.172585 20.129374 -11.187593 0.000000 -0.000000 0.000000 -6.301782 -4.254101 0.238876 5.072418 8.185646 47.358714 13.113185 -11.448121 12.212575 0.000000 -0.000000 0.000000 -2.742811 3.357818 12.091715 0.291762 -3.121436 -4.672554 0.633966 0.309258 4.718390 -1.100248 -5.301748 12.646542 3.748240 -1.615411 1.451211 -4.323591 5.330080 -7.953518 -13.141064 -0.957163 -12.114281 16.964005 -24.547164 -11.228933 7.517947 1.658251 18.224961 1.594499 -6.618987 -10.786797 17.848770 -1.588226 -5.081042 -13.222897 18.559260 -10.972699 -21.734816 -1.156209 17.607357 
0.001757 0.352861 0.987081 92.000131 1.635753 86.578116 1.286541 -1.410078 -7.874743 -4.468442 -9.523955 16.068903 5.675865 20.587448 -11.758370 0.000000 -0.000000 0.000000 -5.690418 -3.961067 -1.953195 5.063007 7.085547 50.897711 12.588567 -12.731099 17.628500 0.000000 -0.000000 0.000000 -3.135887 2.666090 12.684707 0.129463 -2.967894 -4.865978 0.572400 0.116484 4.989738 -1.007009 -5.583599 12.400576 4.007644 -1.004847 1.553237 -4.677945 5.259493 -7.940920 -13.391390 -1.454891 -12.033161 17.004656 -24.075995 -11.419897 7.417454 1.732979 18.035711 1.345888 -6.699807 -10.993827 17.521613 -0.969210 -4.709428 -13.401460 18.635128 -11.139022 -21.715301 -1.063657 17.360710 
0.015379 0.356364 0.987862 92.532412 2.108993 86.303922 1.445865 -1.453051 -6.355717 -4.311819 -10.358038 15.530512 5.855647 20.917338 -12.486378 0.000000 -0.000000 0.000000 -4.775186 -3.406314 -4.051020 4.797038 5.828622 53.644678 11.981763 -13.883517 19.316110 0.000000 -0.000000 0.000000 -3.455248 1.939699 13.208545 -0.067288 -2.814041 -4.955122 0.458881 -0.112178 5.115239 -0.745404 -5.736401 12.408272 4.254350 -0.549795 1.702441 -5.032262 4.976665 -7.904795 -13.568893 -1.787411 -11.914268 17.082036 -23.796169 -11.730984 7.218467 1.749823 17.957769 1.127824 -6.628496 -11.128660 17.245599 -0.737664 -4.492066 -13.637963 18.882986 -11.162253 -21.607255 -1.042553 17.137108 
